<svg width="24" height="24" viewBox="0 0 24 24" fill="none" xmlns="http://www.w3.org/2000/svg">
<path fill-rule="evenodd" clip-rule="evenodd" d="M11.865 15.245L16.615 10.495C16.955 10.155 16.955 9.605 16.615 9.255C16.275 8.915 15.715 8.915 15.375 9.255L11.245 13.385L9.495 11.635C9.155 11.295 8.595 11.295 8.255 11.635C7.915 11.975 7.915 12.525 8.255 12.875L10.635 15.245C10.805 15.415 11.025 15.495 11.245 15.495C11.475 15.495 11.695 15.415 11.865 15.245Z" fill="#5B7DDE"/>
<path d="M11.865 15.245L16.615 10.495C16.955 10.155 16.955 9.605 16.615 9.255C16.275 8.915 15.715 8.915 15.375 9.255L11.245 13.385L9.495 11.635C9.155 11.295 8.595 11.295 8.255 11.635C7.915 11.975 7.915 12.525 8.255 12.875L10.635 15.245C10.805 15.415 11.025 15.495 11.245 15.495C11.475 15.495 11.695 15.415 11.865 15.245Z" fill="white"/>
</svg>
