<svg width="22" height="22" viewBox="0 0 22 22" fill="none" xmlns="http://www.w3.org/2000/svg">
<path d="M20.7217 2.09734L16.1279 0.535462C15.991 0.488261 15.8422 0.488261 15.7053 0.535462L11.1116 2.09734C10.9817 2.14151 10.8689 2.22529 10.7891 2.33688C10.7093 2.44847 10.6665 2.58227 10.6666 2.71946V6.23565C10.6666 10.5275 15.4559 12.6118 15.6607 12.6997C15.7418 12.7342 15.8291 12.752 15.9173 12.752C16.0055 12.752 16.0927 12.7342 16.1739 12.6997C16.3773 12.6118 21.1666 10.5262 21.1666 6.23434V2.71946C21.1668 2.58227 21.124 2.44847 21.0442 2.33688C20.9644 2.22529 20.8516 2.14151 20.7217 2.09734ZM18.7923 5.41534L16.3865 8.4774C16.3135 8.57013 16.2225 8.64714 16.119 8.70381C16.0155 8.76048 15.9016 8.79563 15.7841 8.80715C15.6667 8.81868 15.5481 8.80634 15.4355 8.77087C15.323 8.7354 15.2188 8.67755 15.1291 8.60077L13.5974 7.28827C13.5102 7.21356 13.4386 7.12239 13.3866 7.01999C13.3346 6.91758 13.3033 6.80594 13.2945 6.69143C13.2856 6.57693 13.2994 6.46181 13.3351 6.35264C13.3708 6.24347 13.4276 6.14239 13.5023 6.05518C13.577 5.96797 13.6682 5.89632 13.7706 5.84434C13.873 5.79236 13.9846 5.76106 14.0991 5.75222C14.2136 5.74338 14.3287 5.75719 14.4379 5.79284C14.5471 5.8285 14.6482 5.88531 14.7354 5.96002L15.5741 6.67796L17.4168 4.33384C17.5602 4.15143 17.7702 4.03347 18.0006 4.00591C18.231 3.97834 18.4629 4.04342 18.6453 4.18684C18.8277 4.33025 18.9457 4.54025 18.9732 4.77064C19.0008 5.00103 18.9357 5.23293 18.7923 5.41534Z" fill="#95AAF1"/>
<path d="M21.1666 12.9688C21.1666 13.8088 20.4749 14.5005 19.6349 14.5005H18.5324C18.5223 15.4182 18.2764 16.3179 17.8184 17.1132C17.3603 17.9084 16.7054 18.5725 15.9166 19.0417V19.9697C15.9166 20.8083 15.2249 21.5 14.3849 21.5H13.5095C13.1041 21.4976 12.7161 21.3354 12.4296 21.0487C12.1431 20.7619 11.9812 20.3737 11.9791 19.9684V19.7492H8.47869V19.9684C8.47869 20.8084 7.787 21.5 6.947 21.5H6.07288C5.23288 21.5 4.54119 20.8084 4.54119 19.9684V18.7517C3.34803 17.9615 2.48817 16.7591 2.12619 15.3746H1.69831C0.858313 15.3746 0.166626 14.6842 0.166626 13.8442V12.5317C0.166626 11.6917 0.858313 11 1.69831 11H2.915C3.125 10.685 3.37044 10.3871 3.65 10.1075C3.92956 9.82798 4.2275 9.58254 4.5425 9.37254V6.40629C4.5425 6.21335 4.63044 6.0296 4.76956 5.90754C4.84209 5.8479 4.92618 5.80394 5.01653 5.77841C5.10689 5.75289 5.20156 5.74635 5.29456 5.75923C7.63081 6.10966 8.51413 7.28173 8.80288 8.37504H9.23994C10.202 11.508 13.1158 13.5292 14.9795 14.3075C15.2774 14.4388 15.6003 14.5005 15.9153 14.5005C16.2303 14.5005 16.5545 14.4388 16.8511 14.3075C17.4457 14.0621 18.1374 13.6867 18.8461 13.188H19.6336C19.7557 13.188 19.8528 13.0922 19.8528 12.9688C19.8528 12.8454 19.757 12.7496 19.6336 12.7496C19.577 12.7499 19.5207 12.7411 19.4669 12.7234C19.8344 12.4346 20.2019 12.1104 20.5432 11.7429C20.9212 12.0238 21.1666 12.47 21.1666 12.9688Z" fill="#5B7DDE"/>
</svg>
