<svg width="22" height="22" viewBox="0 0 22 22" fill="none" xmlns="http://www.w3.org/2000/svg">
<path d="M21.0551 2.09734L16.4613 0.535462C16.3244 0.488261 16.1756 0.488261 16.0387 0.535462L11.4449 2.09734C11.3151 2.14151 11.2023 2.22529 11.1225 2.33688C11.0427 2.44847 10.9998 2.58227 11 2.71946V6.23565C11 10.5275 15.7893 12.6118 15.9941 12.6997C16.0748 12.7348 16.162 12.7528 16.25 12.7528C16.3381 12.7528 16.4252 12.7348 16.5059 12.6997C16.7107 12.6118 21.5 10.5262 21.5 6.23434V2.71946C21.5002 2.58227 21.4573 2.44847 21.3775 2.33688C21.2977 2.22529 21.1849 2.14151 21.0551 2.09734ZM19.1257 5.41534L16.7199 8.4774C16.647 8.57022 16.5561 8.64735 16.4526 8.70414C16.3491 8.76092 16.2352 8.7962 16.1178 8.80785C16.0003 8.8195 15.8817 8.80727 15.7691 8.77191C15.6565 8.73655 15.5522 8.67879 15.4625 8.60209L13.9308 7.28959C13.7635 7.13605 13.6623 6.92348 13.6488 6.69677C13.6352 6.47006 13.7103 6.24696 13.8582 6.07457C14.006 5.90218 14.2151 5.794 14.4412 5.77287C14.6673 5.75174 14.8928 5.81932 15.0701 5.96134L15.9088 6.67927L17.7515 4.33515C17.8215 4.24237 17.9093 4.16449 18.0098 4.10606C18.1103 4.04763 18.2215 4.00983 18.3367 3.99487C18.452 3.97991 18.5691 3.9881 18.6812 4.01894C18.7932 4.04978 18.898 4.10267 18.9894 4.1745C19.0808 4.24634 19.1569 4.33568 19.2134 4.43729C19.2698 4.53891 19.3054 4.65076 19.3181 4.7663C19.3308 4.88185 19.3203 4.99876 19.2873 5.1102C19.2542 5.22165 19.1993 5.32538 19.1257 5.41534Z" fill="#95AAF1"/>
<path d="M0.929187 11.0014C0.814522 11.0038 0.705367 11.051 0.625132 11.133C0.544898 11.2149 0.499975 11.325 0.5 11.4397V19.5313C0.5 19.6521 0.598437 19.7505 0.719187 19.7505H2.79425C2.98981 19.7505 3.16175 19.6206 3.21556 19.4329L5.1515 12.6092C5.21192 12.3966 5.1896 12.1691 5.08903 11.9723C4.98846 11.7756 4.8171 11.6242 4.60944 11.5487C3.81537 11.2586 2.6 10.9738 0.929187 11.0014ZM19.7504 15.813C18.0009 15.813 14.5004 18.0285 12.7496 18.0285C11 18.0285 9.03125 16.6884 9.03125 16.6884C9.03125 16.6884 11.3885 17.1255 12.7496 17.1255C14.1119 17.1255 14.4991 16.6609 14.4991 16.0322C14.4991 14.5005 11.8977 14.2629 10.5826 14.0634C9.29113 13.3442 8.62044 12.7759 6.48106 12.5947C6.46794 12.7194 6.44825 12.8428 6.41412 12.9675L4.65669 19.1625C6.64775 20.0681 10.076 21.5027 11.8754 21.5027C14.5004 21.5027 21.5013 18.0022 21.5013 17.1281C21.5 16.2501 20.6259 15.813 19.7504 15.813Z" fill="#5B7DDE"/>
</svg>
