<svg width="21" height="22" viewBox="0 0 21 22" fill="none" xmlns="http://www.w3.org/2000/svg">
<path d="M7.36839 11.6563L0.691705 11.6655L1.27839 5.3484C1.33321 4.75115 1.60985 4.19612 2.05375 3.79279C2.49765 3.38947 3.07657 3.16714 3.67633 3.16965H4.46383C4.29714 3.7209 4.21052 4.31546 4.21052 4.9284C4.2092 7.64921 6.01127 10.16 7.36839 11.6563ZM11.55 13.4058L5.92464 21.5H2.41502C1.73252 21.5 1.08545 21.2113 0.630017 20.7125C0.17458 20.2138 -0.0432951 19.5405 0.0170799 18.8658L0.525017 13.415L9.34502 13.4058H11.55ZM13.3088 11.6563C14.6567 10.16 16.4588 7.64921 16.4588 4.92709C16.4588 4.31415 16.3708 3.71958 16.2055 3.16833H16.993C18.2438 3.16833 19.2675 4.10415 19.3909 5.34708L19.9776 11.6471L13.3088 11.6563ZM20.1403 13.3953L13.6789 13.4045L8.05614 21.5H18.2556C18.5907 21.5002 18.9221 21.4304 19.2286 21.2951C19.5352 21.1597 19.8101 20.9619 20.0357 20.7141C20.2613 20.4664 20.4327 20.1742 20.5389 19.8564C20.6451 19.5386 20.6836 19.2021 20.6522 18.8685L20.1403 13.3953Z" fill="#5B7DDE"/>
<path d="M10.3346 0.5C7.92227 0.5 5.96008 2.48713 5.96008 4.92969C5.96008 8.30019 9.74664 11.5788 9.90808 11.7179C10.0266 11.8204 10.178 11.8767 10.3346 11.8767C10.4913 11.8767 10.6427 11.8204 10.7612 11.7179C10.9226 11.5801 14.7092 8.3015 14.7092 4.92969C14.7092 2.48713 12.7457 0.5 10.3346 0.5ZM10.3346 6.62544C9.88482 6.6041 9.46048 6.41038 9.14968 6.08449C8.83888 5.7586 8.6655 5.32555 8.6655 4.87522C8.6655 4.42489 8.83888 3.99184 9.14968 3.66595C9.46048 3.34006 9.88482 3.14634 10.3346 3.125C10.7905 3.13749 11.2236 3.32736 11.5416 3.65423C11.8596 3.9811 12.0376 4.41916 12.0376 4.87522C12.0376 5.33128 11.8596 5.76934 11.5416 6.09621C11.2236 6.42308 10.7905 6.61295 10.3346 6.62544Z" fill="#95AAF1"/>
</svg>
