<svg width="141" height="53" viewBox="0 0 141 53" fill="none" xmlns="http://www.w3.org/2000/svg">
<path d="M19.386 26.442C19.65 26.442 19.884 26.544 20.088 26.748L21.996 28.818C20.94 30.126 19.638 31.128 18.09 31.824C16.554 32.52 14.706 32.868 12.546 32.868C10.614 32.868 8.874 32.538 7.326 31.878C5.79 31.218 4.476 30.3 3.384 29.124C2.292 27.948 1.452 26.544 0.864 24.912C0.288 23.28 0 21.498 0 19.566C0 17.61 0.312 15.822 0.936 14.202C1.56 12.57 2.436 11.166 3.564 9.99C4.704 8.814 6.06 7.902 7.632 7.254C9.204 6.594 10.944 6.264 12.852 6.264C14.748 6.264 16.428 6.576 17.892 7.2C19.368 7.824 20.622 8.64 21.654 9.648L20.034 11.898C19.938 12.042 19.812 12.168 19.656 12.276C19.512 12.384 19.308 12.438 19.044 12.438C18.864 12.438 18.678 12.39 18.486 12.294C18.294 12.186 18.084 12.06 17.856 11.916C17.628 11.76 17.364 11.592 17.064 11.412C16.764 11.232 16.416 11.07 16.02 10.926C15.624 10.77 15.162 10.644 14.634 10.548C14.118 10.44 13.518 10.386 12.834 10.386C11.67 10.386 10.602 10.596 9.63 11.016C8.67 11.424 7.842 12.024 7.146 12.816C6.45 13.596 5.91 14.556 5.526 15.696C5.142 16.824 4.95 18.114 4.95 19.566C4.95 21.03 5.154 22.332 5.562 23.472C5.982 24.612 6.546 25.572 7.254 26.352C7.962 27.132 8.796 27.732 9.756 28.152C10.716 28.56 11.748 28.764 12.852 28.764C13.512 28.764 14.106 28.728 14.634 28.656C15.174 28.584 15.666 28.47 16.11 28.314C16.566 28.158 16.992 27.96 17.388 27.72C17.796 27.468 18.198 27.162 18.594 26.802C18.714 26.694 18.84 26.61 18.972 26.55C19.104 26.478 19.242 26.442 19.386 26.442Z" fill="white"/>
<path d="M47.3988 32.58H43.0068C42.5508 32.58 42.1668 32.46 41.8548 32.22C41.5548 31.98 41.2728 31.626 41.0088 31.158L35.4648 22.41C35.3208 22.158 35.1648 21.954 34.9968 21.798C34.8408 21.63 34.6668 21.498 34.4748 21.402C34.2948 21.294 34.0848 21.222 33.8448 21.186C33.6168 21.15 33.3528 21.132 33.0528 21.132H30.1548V32.58H25.3128V6.552H30.1548V17.46H32.6028C33.0948 17.46 33.5208 17.376 33.8808 17.208C34.2408 17.04 34.5768 16.728 34.8888 16.272L40.5948 7.848C40.8348 7.464 41.1168 7.152 41.4408 6.912C41.7648 6.672 42.1548 6.552 42.6108 6.552H46.7508L39.6768 16.992C39.3768 17.448 39.0288 17.826 38.6328 18.126C38.2368 18.426 37.7988 18.66 37.3188 18.828C38.0388 19.032 38.6448 19.356 39.1368 19.8C39.6408 20.232 40.1208 20.832 40.5768 21.6L47.3988 32.58Z" fill="white"/>
<path d="M64.0772 22.752L60.9092 14.094C60.7532 13.71 60.5912 13.254 60.4232 12.726C60.2552 12.198 60.0872 11.628 59.9192 11.016C59.7632 11.628 59.6012 12.204 59.4332 12.744C59.2652 13.272 59.1032 13.734 58.9472 14.13L55.7972 22.752H64.0772ZM72.6272 32.58H68.8832C68.4632 32.58 68.1212 32.478 67.8572 32.274C67.5932 32.058 67.3952 31.794 67.2632 31.482L65.3192 26.172H54.5372L52.5932 31.482C52.4972 31.758 52.3112 32.01 52.0352 32.238C51.7592 32.466 51.4112 32.58 50.9912 32.58H47.2292L57.4532 6.552H62.4032L72.6272 32.58Z" fill="white"/>
<path d="M97.2118 6.552V32.58H92.3518V16.272C92.3518 15.66 92.3638 15.018 92.3878 14.346C92.4238 13.674 92.4958 12.96 92.6038 12.204C92.3638 12.876 92.0998 13.5 91.8118 14.076C91.5358 14.64 91.2658 15.138 91.0018 15.57L81.0478 31.086C80.9398 31.266 80.8078 31.446 80.6518 31.626C80.5078 31.806 80.3458 31.968 80.1658 32.112C79.9858 32.244 79.7878 32.358 79.5718 32.454C79.3558 32.538 79.1338 32.58 78.9058 32.58H75.2698V6.552H80.1298V22.86C80.1298 23.472 80.1118 24.12 80.0758 24.804C80.0518 25.476 79.9858 26.19 79.8778 26.946C80.1178 26.274 80.3758 25.65 80.6518 25.074C80.9398 24.498 81.2218 23.994 81.4978 23.562L91.4338 8.046C91.5418 7.866 91.6678 7.686 91.8118 7.506C91.9678 7.326 92.1358 7.17 92.3158 7.038C92.4958 6.894 92.6878 6.78 92.8918 6.696C93.1078 6.6 93.3358 6.552 93.5758 6.552H97.2118ZM86.4658 2.79C86.9098 2.79 87.2818 2.748 87.5818 2.664C87.8818 2.58 88.1218 2.436 88.3018 2.232C88.4818 2.016 88.6078 1.728 88.6798 1.368C88.7518 1.008 88.7878 0.552 88.7878 0H91.4158C91.7278 0 91.9558 0.132 92.0998 0.395999C92.2558 0.66 92.3338 0.948 92.3338 1.26C92.3338 1.872 92.1958 2.412 91.9198 2.88C91.6438 3.348 91.2478 3.738 90.7318 4.05C90.2158 4.362 89.5978 4.602 88.8778 4.77C88.1578 4.926 87.3538 5.004 86.4658 5.004C85.5778 5.004 84.7738 4.926 84.0538 4.77C83.3338 4.602 82.7158 4.362 82.1998 4.05C81.6838 3.738 81.2878 3.348 81.0118 2.88C80.7358 2.412 80.5978 1.872 80.5978 1.26C80.5978 0.948 80.6698 0.66 80.8138 0.395999C80.9698 0.132 81.2038 0 81.5158 0H84.1438C84.1438 0.552 84.1798 1.008 84.2518 1.368C84.3238 1.728 84.4498 2.016 84.6298 2.232C84.8098 2.436 85.0438 2.58 85.3318 2.664C85.6318 2.748 86.0098 2.79 86.4658 2.79Z" fill="white"/>
<path d="M7.243 49.58H6.571V43.126H2.434V49.58H1.762V42.615H7.243V49.58Z" fill="white"/>
<path d="M12.1033 48.061C12.2386 48.2617 12.3786 48.432 12.5233 48.572C12.6726 48.7073 12.829 48.8193 12.9923 48.908C13.1556 48.992 13.3283 49.0527 13.5103 49.09C13.697 49.1273 13.893 49.146 14.0983 49.146C14.509 49.146 14.8683 49.0713 15.1763 48.922C15.4843 48.7727 15.741 48.5627 15.9463 48.292C16.1563 48.0167 16.3126 47.69 16.4153 47.312C16.5226 46.9293 16.5763 46.5093 16.5763 46.052C16.5763 45.016 16.385 44.2553 16.0023 43.77C15.6196 43.28 15.0713 43.035 14.3573 43.035C13.8953 43.035 13.4776 43.154 13.1043 43.392C12.731 43.63 12.3973 43.9613 12.1033 44.386V48.061ZM12.0753 43.868C12.3833 43.448 12.7426 43.1143 13.1533 42.867C13.5686 42.6197 14.033 42.496 14.5463 42.496C15.4003 42.496 16.0653 42.7923 16.5413 43.385C17.022 43.9777 17.2623 44.8667 17.2623 46.052C17.2623 46.5607 17.1946 47.0367 17.0593 47.48C16.9286 47.9187 16.7326 48.3013 16.4713 48.628C16.2146 48.95 15.8973 49.2043 15.5193 49.391C15.146 49.5777 14.7143 49.671 14.2243 49.671C13.753 49.671 13.3446 49.5847 12.9993 49.412C12.654 49.2393 12.3553 48.985 12.1033 48.649V52.044H11.4313V42.615H11.8023C11.919 42.615 11.9866 42.6733 12.0053 42.79L12.0753 43.868Z" fill="white"/>
<path d="M23.7902 42.503C24.2896 42.503 24.7352 42.5893 25.1272 42.762C25.5239 42.93 25.8576 43.1703 26.1282 43.483C26.3989 43.7957 26.6042 44.1737 26.7442 44.617C26.8889 45.0557 26.9612 45.548 26.9612 46.094C26.9612 46.64 26.8889 47.1323 26.7442 47.571C26.6042 48.0097 26.3989 48.3853 26.1282 48.698C25.8576 49.0107 25.5239 49.251 25.1272 49.419C24.7352 49.587 24.2896 49.671 23.7902 49.671C23.2909 49.671 22.8429 49.587 22.4462 49.419C22.0542 49.251 21.7206 49.0107 21.4452 48.698C21.1746 48.3853 20.9669 48.0097 20.8222 47.571C20.6822 47.1323 20.6122 46.64 20.6122 46.094C20.6122 45.548 20.6822 45.0557 20.8222 44.617C20.9669 44.1737 21.1746 43.7957 21.4452 43.483C21.7206 43.1703 22.0542 42.93 22.4462 42.762C22.8429 42.5893 23.2909 42.503 23.7902 42.503ZM23.7902 49.146C24.2056 49.146 24.5672 49.076 24.8752 48.936C25.1879 48.7913 25.4469 48.586 25.6522 48.32C25.8622 48.054 26.0186 47.7343 26.1212 47.361C26.2239 46.983 26.2752 46.5607 26.2752 46.094C26.2752 45.632 26.2239 45.212 26.1212 44.834C26.0186 44.456 25.8622 44.134 25.6522 43.868C25.4469 43.5973 25.1879 43.3897 24.8752 43.245C24.5672 43.1003 24.2056 43.028 23.7902 43.028C23.3749 43.028 23.0109 43.1003 22.6982 43.245C22.3902 43.3897 22.1312 43.5973 21.9212 43.868C21.7159 44.134 21.5596 44.456 21.4522 44.834C21.3496 45.212 21.2982 45.632 21.2982 46.094C21.2982 46.5607 21.3496 46.983 21.4522 47.361C21.5596 47.7343 21.7159 48.054 21.9212 48.32C22.1312 48.586 22.3902 48.7913 22.6982 48.936C23.0109 49.076 23.3749 49.146 23.7902 49.146Z" fill="white"/>
<path d="M35.0549 42.811C35.0922 42.755 35.1412 42.7083 35.2019 42.671C35.2672 42.6337 35.3349 42.615 35.4049 42.615H35.9159L33.8719 45.359C33.7645 45.5083 33.6455 45.6367 33.5149 45.744C33.3889 45.8467 33.2349 45.926 33.0529 45.982C33.2722 46.0287 33.4612 46.1103 33.6199 46.227C33.7785 46.339 33.9232 46.4907 34.0539 46.682L36.1329 49.58H35.6639C35.5425 49.58 35.4469 49.5613 35.3769 49.524C35.3069 49.482 35.2462 49.4213 35.1949 49.342L33.4309 46.871C33.2955 46.675 33.1322 46.528 32.9409 46.43C32.7542 46.3273 32.5419 46.276 32.3039 46.276H31.4009V49.587H30.7289V42.615H31.4009V45.814H32.2059C32.4019 45.814 32.5862 45.7673 32.7589 45.674C32.9362 45.5807 33.0832 45.4523 33.1999 45.289L35.0549 42.811Z" fill="white"/>
<path d="M43.3265 46.213C42.6638 46.2363 42.0921 46.29 41.6115 46.374C41.1355 46.4533 40.7411 46.563 40.4285 46.703C40.1205 46.843 39.8918 47.011 39.7425 47.207C39.5931 47.3983 39.5185 47.6177 39.5185 47.865C39.5185 48.0983 39.5558 48.3013 39.6305 48.474C39.7098 48.642 39.8125 48.782 39.9385 48.894C40.0691 49.0013 40.2185 49.0807 40.3865 49.132C40.5545 49.1833 40.7295 49.209 40.9115 49.209C41.1821 49.209 41.4295 49.181 41.6535 49.125C41.8821 49.0643 42.0921 48.9827 42.2835 48.88C42.4795 48.7727 42.6615 48.6467 42.8295 48.502C42.9975 48.3573 43.1631 48.201 43.3265 48.033V46.213ZM39.2315 43.602C39.5955 43.238 39.9781 42.9627 40.3795 42.776C40.7808 42.5893 41.2358 42.496 41.7445 42.496C42.1178 42.496 42.4445 42.5567 42.7245 42.678C43.0045 42.7947 43.2355 42.965 43.4175 43.189C43.6041 43.4083 43.7441 43.6767 43.8375 43.994C43.9308 44.3067 43.9775 44.6567 43.9775 45.044V49.58H43.7115C43.5715 49.58 43.4851 49.5147 43.4525 49.384L43.3545 48.488C43.1631 48.6747 42.9718 48.8427 42.7805 48.992C42.5938 49.1413 42.3978 49.2673 42.1925 49.37C41.9871 49.4727 41.7655 49.552 41.5275 49.608C41.2895 49.664 41.0281 49.692 40.7435 49.692C40.5055 49.692 40.2745 49.657 40.0505 49.587C39.8265 49.517 39.6258 49.4097 39.4485 49.265C39.2758 49.1203 39.1358 48.936 39.0285 48.712C38.9258 48.4833 38.8745 48.2103 38.8745 47.893C38.8745 47.599 38.9585 47.326 39.1265 47.074C39.2945 46.822 39.5581 46.6027 39.9175 46.416C40.2768 46.2293 40.7365 46.08 41.2965 45.968C41.8611 45.856 42.5378 45.7907 43.3265 45.772V45.044C43.3265 44.4 43.1865 43.9053 42.9065 43.56C42.6311 43.21 42.2205 43.035 41.6745 43.035C41.3385 43.035 41.0515 43.0817 40.8135 43.175C40.5801 43.2683 40.3818 43.371 40.2185 43.483C40.0551 43.595 39.9221 43.6977 39.8195 43.791C39.7168 43.8843 39.6305 43.931 39.5605 43.931C39.5091 43.931 39.4671 43.9193 39.4345 43.896C39.4018 43.8727 39.3738 43.8423 39.3505 43.805L39.2315 43.602Z" fill="white"/>
<path d="M53.4383 43.126H50.5263V49.58H49.8543V43.126H46.9423V42.615H53.4383V43.126Z" fill="white"/>
<path d="M68.0274 42.615V49.58H67.3624V43.966C67.3624 43.9007 67.3647 43.8307 67.3694 43.756C67.3741 43.6813 67.3811 43.6067 67.3904 43.532C67.3577 43.5973 67.3251 43.658 67.2924 43.714C67.2644 43.7653 67.2341 43.812 67.2014 43.854C67.1921 43.8633 67.1267 43.952 67.0054 44.12C66.8841 44.2833 66.7231 44.4957 66.5224 44.757C66.3264 45.0183 66.1024 45.3147 65.8504 45.646C65.6031 45.9773 65.3511 46.3157 65.0944 46.661C64.4877 47.4683 63.7994 48.3853 63.0294 49.412C63.0014 49.454 62.9641 49.4937 62.9174 49.531C62.8754 49.5637 62.8287 49.58 62.7774 49.58H62.3924V42.615H63.0644V48.229C63.0644 48.2943 63.0621 48.3643 63.0574 48.439C63.0527 48.5137 63.0457 48.5883 63.0364 48.663C63.0644 48.5977 63.0947 48.5393 63.1274 48.488C63.1601 48.432 63.1904 48.383 63.2184 48.341C63.2231 48.3317 63.2861 48.2453 63.4074 48.082C63.5334 47.9187 63.6944 47.7063 63.8904 47.445C64.0911 47.179 64.3151 46.8803 64.5624 46.549C64.8097 46.2177 65.0641 45.8793 65.3254 45.534C65.9321 44.7267 66.6204 43.812 67.3904 42.79C67.4184 42.7433 67.4534 42.7037 67.4954 42.671C67.5421 42.6337 67.5911 42.615 67.6424 42.615H68.0274Z" fill="white"/>
<path d="M77.6931 42.615V49.58H77.0211V46.087H72.8841V49.58H72.2121V42.615H72.8841V45.576H77.0211V42.615H77.6931Z" fill="white"/>
<path d="M84.3454 49.104C84.6394 49.104 84.9054 49.069 85.1434 48.999C85.3814 48.929 85.582 48.8287 85.7454 48.698C85.9087 48.5673 86.0347 48.4087 86.1234 48.222C86.212 48.0353 86.2564 47.8277 86.2564 47.599C86.2564 47.389 86.2214 47.1977 86.1514 47.025C86.0814 46.8523 85.9694 46.7053 85.8154 46.584C85.666 46.458 85.47 46.3623 85.2274 46.297C84.9894 46.227 84.7024 46.192 84.3664 46.192H82.5254V49.104H84.3454ZM82.5254 43.077V45.744H84.1774C84.4294 45.744 84.6627 45.7113 84.8774 45.646C85.092 45.576 85.2764 45.478 85.4304 45.352C85.5844 45.226 85.7034 45.0767 85.7874 44.904C85.876 44.7267 85.9204 44.5307 85.9204 44.316C85.9204 44.1573 85.89 44.0057 85.8294 43.861C85.7734 43.7117 85.6754 43.5787 85.5354 43.462C85.4 43.3453 85.2204 43.252 84.9964 43.182C84.777 43.112 84.504 43.077 84.1774 43.077H82.5254ZM84.1984 42.615C84.6184 42.615 84.9754 42.6593 85.2694 42.748C85.5634 42.832 85.8014 42.9487 85.9834 43.098C86.1654 43.2427 86.2984 43.413 86.3824 43.609C86.4664 43.805 86.5084 44.0103 86.5084 44.225C86.5084 44.379 86.485 44.5423 86.4384 44.715C86.3917 44.883 86.3124 45.0463 86.2004 45.205C86.0884 45.3637 85.9367 45.506 85.7454 45.632C85.5587 45.758 85.323 45.8513 85.0384 45.912C85.6684 45.9867 86.1327 46.1757 86.4314 46.479C86.73 46.7777 86.8794 47.1533 86.8794 47.606C86.8794 47.9187 86.8164 48.1987 86.6904 48.446C86.569 48.6887 86.3964 48.894 86.1724 49.062C85.953 49.23 85.687 49.3583 85.3744 49.447C85.0664 49.5357 84.7257 49.58 84.3524 49.58H81.8814V42.615H84.1984Z" fill="white"/>
<path d="M95.507 45.394C95.507 45.0207 95.4533 44.687 95.346 44.393C95.2433 44.0943 95.0963 43.8423 94.905 43.637C94.7137 43.4317 94.485 43.2753 94.219 43.168C93.9577 43.056 93.6683 43 93.351 43C92.9916 43 92.6697 43.056 92.385 43.168C92.1003 43.28 91.853 43.441 91.643 43.651C91.4376 43.861 91.272 44.113 91.146 44.407C91.02 44.701 90.936 45.03 90.894 45.394H95.507ZM90.859 45.821V45.954C90.859 46.4767 90.9197 46.9363 91.041 47.333C91.1623 47.7297 91.335 48.0633 91.559 48.334C91.783 48.6 92.0537 48.8007 92.371 48.936C92.6883 49.0713 93.043 49.139 93.435 49.139C93.785 49.139 94.0883 49.1017 94.345 49.027C94.6017 48.9477 94.8163 48.8613 94.989 48.768C95.1663 48.67 95.3063 48.5837 95.409 48.509C95.5117 48.4297 95.5863 48.39 95.633 48.39C95.6937 48.39 95.7403 48.4133 95.773 48.46L95.955 48.684C95.843 48.824 95.6937 48.9547 95.507 49.076C95.325 49.1973 95.1197 49.3023 94.891 49.391C94.667 49.475 94.4243 49.5427 94.163 49.594C93.9063 49.6453 93.6473 49.671 93.386 49.671C92.91 49.671 92.476 49.5893 92.084 49.426C91.692 49.258 91.356 49.0153 91.076 48.698C90.796 48.3807 90.579 47.9933 90.425 47.536C90.2757 47.074 90.201 46.5467 90.201 45.954C90.201 45.4547 90.271 44.995 90.411 44.575C90.5557 44.1503 90.761 43.7863 91.027 43.483C91.2977 43.175 91.6267 42.9347 92.014 42.762C92.406 42.5893 92.8493 42.503 93.344 42.503C93.736 42.503 94.1 42.5707 94.436 42.706C94.772 42.8413 95.0637 43.0397 95.311 43.301C95.5583 43.5577 95.752 43.875 95.892 44.253C96.0366 44.631 96.109 45.065 96.109 45.555C96.109 45.6577 96.095 45.7277 96.067 45.765C96.039 45.8023 95.9923 45.821 95.927 45.821H90.859Z" fill="white"/>
<path d="M105.293 42.615V49.58H104.621V46.087H100.484V49.58H99.8118V42.615H100.484V45.576H104.621V42.615H105.293Z" fill="white"/>
<path d="M115.053 43.126H112.141V49.58H111.469V43.126H108.557V42.615H115.053V43.126Z" fill="white"/>
<path d="M122.106 46.213C121.443 46.2363 120.872 46.29 120.391 46.374C119.915 46.4533 119.521 46.563 119.208 46.703C118.9 46.843 118.671 47.011 118.522 47.207C118.373 47.3983 118.298 47.6177 118.298 47.865C118.298 48.0983 118.335 48.3013 118.41 48.474C118.489 48.642 118.592 48.782 118.718 48.894C118.849 49.0013 118.998 49.0807 119.166 49.132C119.334 49.1833 119.509 49.209 119.691 49.209C119.962 49.209 120.209 49.181 120.433 49.125C120.662 49.0643 120.872 48.9827 121.063 48.88C121.259 48.7727 121.441 48.6467 121.609 48.502C121.777 48.3573 121.943 48.201 122.106 48.033V46.213ZM118.011 43.602C118.375 43.238 118.758 42.9627 119.159 42.776C119.56 42.5893 120.015 42.496 120.524 42.496C120.897 42.496 121.224 42.5567 121.504 42.678C121.784 42.7947 122.015 42.965 122.197 43.189C122.384 43.4083 122.524 43.6767 122.617 43.994C122.71 44.3067 122.757 44.6567 122.757 45.044V49.58H122.491C122.351 49.58 122.265 49.5147 122.232 49.384L122.134 48.488C121.943 48.6747 121.751 48.8427 121.56 48.992C121.373 49.1413 121.177 49.2673 120.972 49.37C120.767 49.4727 120.545 49.552 120.307 49.608C120.069 49.664 119.808 49.692 119.523 49.692C119.285 49.692 119.054 49.657 118.83 49.587C118.606 49.517 118.405 49.4097 118.228 49.265C118.055 49.1203 117.915 48.936 117.808 48.712C117.705 48.4833 117.654 48.2103 117.654 47.893C117.654 47.599 117.738 47.326 117.906 47.074C118.074 46.822 118.338 46.6027 118.697 46.416C119.056 46.2293 119.516 46.08 120.076 45.968C120.641 45.856 121.317 45.7907 122.106 45.772V45.044C122.106 44.4 121.966 43.9053 121.686 43.56C121.411 43.21 121 43.035 120.454 43.035C120.118 43.035 119.831 43.0817 119.593 43.175C119.36 43.2683 119.161 43.371 118.998 43.483C118.835 43.595 118.702 43.6977 118.599 43.791C118.496 43.8843 118.41 43.931 118.34 43.931C118.289 43.931 118.247 43.9193 118.214 43.896C118.181 43.8727 118.153 43.8423 118.13 43.805L118.011 43.602Z" fill="white"/>
<path d="M127.55 48.061C127.686 48.2617 127.826 48.432 127.97 48.572C128.12 48.7073 128.276 48.8193 128.439 48.908C128.603 48.992 128.775 49.0527 128.957 49.09C129.144 49.1273 129.34 49.146 129.545 49.146C129.956 49.146 130.315 49.0713 130.623 48.922C130.931 48.7727 131.188 48.5627 131.393 48.292C131.603 48.0167 131.76 47.69 131.862 47.312C131.97 46.9293 132.023 46.5093 132.023 46.052C132.023 45.016 131.832 44.2553 131.449 43.77C131.067 43.28 130.518 43.035 129.804 43.035C129.342 43.035 128.925 43.154 128.551 43.392C128.178 43.63 127.844 43.9613 127.55 44.386V48.061ZM127.522 43.868C127.83 43.448 128.19 43.1143 128.6 42.867C129.016 42.6197 129.48 42.496 129.993 42.496C130.847 42.496 131.512 42.7923 131.988 43.385C132.469 43.9777 132.709 44.8667 132.709 46.052C132.709 46.5607 132.642 47.0367 132.506 47.48C132.376 47.9187 132.18 48.3013 131.918 48.628C131.662 48.95 131.344 49.2043 130.966 49.391C130.593 49.5777 130.161 49.671 129.671 49.671C129.2 49.671 128.792 49.5847 128.446 49.412C128.101 49.2393 127.802 48.985 127.55 48.649V52.044H126.878V42.615H127.249C127.366 42.615 127.434 42.6733 127.452 42.79L127.522 43.868Z" fill="white"/>
<path d="M140.162 46.01V43.077H138.671C138.344 43.077 138.069 43.1237 137.845 43.217C137.626 43.3103 137.446 43.4293 137.306 43.574C137.171 43.7187 137.073 43.8797 137.012 44.057C136.956 44.2343 136.928 44.4093 136.928 44.582C136.928 44.806 136.972 45.0067 137.061 45.184C137.154 45.3613 137.287 45.5107 137.46 45.632C137.633 45.7533 137.843 45.8467 138.09 45.912C138.337 45.9773 138.615 46.01 138.923 46.01H140.162ZM140.813 42.615V49.58H140.162V46.451H139.322C139.205 46.451 139.105 46.458 139.021 46.472C138.942 46.486 138.869 46.5093 138.804 46.542C138.743 46.5747 138.687 46.6167 138.636 46.668C138.585 46.7147 138.531 46.7753 138.475 46.85L136.438 49.342C136.391 49.4213 136.333 49.482 136.263 49.524C136.198 49.5613 136.104 49.58 135.983 49.58H135.521L137.88 46.724C138.006 46.5233 138.176 46.388 138.391 46.318C138.008 46.29 137.682 46.2223 137.411 46.115C137.145 46.0077 136.926 45.8747 136.753 45.716C136.585 45.5527 136.461 45.3707 136.382 45.17C136.307 44.9647 136.27 44.7477 136.27 44.519C136.27 44.295 136.312 44.071 136.396 43.847C136.48 43.6183 136.615 43.413 136.802 43.231C136.993 43.049 137.241 42.902 137.544 42.79C137.847 42.6733 138.216 42.615 138.65 42.615H140.813Z" fill="white"/>
</svg>
