<svg width="16" height="16" viewBox="0 0 16 16" fill="none" xmlns="http://www.w3.org/2000/svg">
<g clip-path="url(#clip0_6716_196)">
<path d="M8 0.862793C6.50868 0.864485 5.07892 1.45766 4.02439 2.51219C2.96987 3.56671 2.37669 4.99647 2.375 6.48779C2.375 11.301 7.48864 14.9362 7.70661 15.0883C7.79259 15.1485 7.89502 15.1808 8 15.1808C8.10498 15.1808 8.20741 15.1485 8.29339 15.0883C8.51136 14.9362 13.625 11.301 13.625 6.48779C13.6233 4.99647 13.0301 3.56671 11.9756 2.51219C10.9211 1.45766 9.49132 0.864485 8 0.862793ZM8 4.44234C8.40455 4.44234 8.80002 4.5623 9.13639 4.78706C9.47277 5.01182 9.73494 5.33127 9.88975 5.70503C10.0446 6.07879 10.0851 6.49006 10.0062 6.88684C9.92723 7.28362 9.73242 7.64809 9.44635 7.93415C9.16029 8.22021 8.79583 8.41502 8.39905 8.49394C8.00227 8.57287 7.591 8.53236 7.21724 8.37755C6.84348 8.22273 6.52402 7.96056 6.29927 7.62419C6.07451 7.28781 5.95455 6.89235 5.95455 6.48779C5.95455 5.9453 6.17005 5.42503 6.55365 5.04144C6.93724 4.65784 7.45751 4.44234 8 4.44234Z" fill="white"/>
</g>
<defs>
<clipPath id="clip0_6716_196">
<rect width="15" height="15" fill="white" transform="translate(0.5 0.521973)"/>
</clipPath>
</defs>
</svg>
