<svg width="16" height="16" viewBox="0 0 16 16" fill="none" xmlns="http://www.w3.org/2000/svg">
<g clip-path="url(#clip0_6716_247)">
<path d="M3 0.522003C2.33696 0.522003 1.70107 0.785395 1.23223 1.25424C0.763392 1.72308 0.5 2.35896 0.5 3.022L0.5 5.022C0.5 10.821 5.201 15.522 11 15.522H13C13.663 15.522 14.2989 15.2586 14.7678 14.7898C15.2366 14.3209 15.5 13.685 15.5 13.022V11.64C15.5 11.3613 15.4223 11.0881 15.2757 10.851C15.1291 10.614 14.9194 10.4225 14.67 10.298L12.255 9.09C12.0627 8.99388 11.852 8.9402 11.6372 8.93261C11.4224 8.92502 11.2084 8.96369 11.0099 9.04601C10.8113 9.12832 10.6327 9.25235 10.4863 9.4097C10.3398 9.56705 10.2289 9.75404 10.161 9.958L9.863 10.851C9.80816 11.0149 9.69543 11.1531 9.54594 11.2398C9.39646 11.3266 9.22048 11.3558 9.051 11.322C7.97742 11.1073 6.9914 10.5796 6.21713 9.80552C5.44287 9.03144 4.91499 8.04554 4.7 6.972C4.66624 6.80252 4.69545 6.62654 4.78216 6.47706C4.86887 6.32757 5.00712 6.21485 5.171 6.16L6.28 5.79C6.63839 5.67032 6.93842 5.4198 7.1201 5.0885C7.30179 4.7572 7.35175 4.36954 7.26 4.003L6.674 1.659C6.59307 1.33452 6.40603 1.04639 6.14259 0.840385C5.87915 0.63438 5.55442 0.522319 5.22 0.522003H3Z" fill="#5B7DDE"/>
</g>
<defs>
<clipPath id="clip0_6716_247">
<rect width="15" height="15" fill="white" transform="translate(0.5 0.522003)"/>
</clipPath>
</defs>
</svg>
