<svg width="29" height="29" viewBox="0 0 29 29" fill="none" xmlns="http://www.w3.org/2000/svg">
<g clip-path="url(#clip0_6704_161)">
<path d="M14.6583 28.5H14.4013C14.3958 28.4945 14.3849 28.489 14.3794 28.4835C13.6576 28.325 13.324 27.9093 13.324 27.171V25.1804C12.8154 25.4757 12.3396 25.7492 11.8583 26.0281C11.5576 26.2031 11.2404 26.2906 10.8904 26.1976C10.4037 26.0664 10.1029 25.7492 10.0044 25.2625C9.90053 24.7429 10.1247 24.2671 10.5787 24.0046C11.4482 23.5015 12.3122 22.9984 13.1872 22.5007C13.2802 22.4625 13.3349 22.3695 13.324 22.271C13.3185 20.4226 13.3185 18.5742 13.3185 16.7312V16.5671C13.2693 16.5945 13.2474 16.6 13.231 16.6109C11.6068 17.5515 9.98256 18.4867 8.35834 19.4218C8.28725 19.4546 8.2435 19.5312 8.25443 19.6132C8.2599 20.5921 8.2599 21.5656 8.25443 22.539C8.25443 22.6375 8.2435 22.7359 8.23256 22.8343C8.17787 23.3648 7.65287 23.9226 6.89271 23.846C6.34037 23.7859 5.85365 23.2554 5.85365 22.6593V20.8765L5.78803 20.9148C5.20834 21.2484 4.62865 21.582 4.05443 21.9156C3.7974 22.0742 3.49662 22.1398 3.20131 22.1015C2.73647 22.0304 2.35365 21.6968 2.22787 21.2375C2.10209 20.7945 2.24975 20.2585 2.61068 20.007C2.9935 19.7445 3.40365 19.5257 3.80287 19.2906C4.08178 19.1265 4.36615 18.9625 4.66147 18.7929C4.1474 18.4976 3.64975 18.2132 3.15209 17.9234C2.67084 17.6445 2.41928 17.1304 2.52865 16.6601C2.731 15.7796 3.58959 15.4078 4.38256 15.8617C5.22475 16.3539 6.0724 16.8351 6.91459 17.3273C7.00209 17.3875 7.11693 17.3875 7.20443 17.3273C8.65365 16.4851 10.1029 15.6484 11.5576 14.8117C11.7216 14.7187 11.8802 14.6203 12.0552 14.5164L11.2787 14.0679C9.90053 13.275 8.5224 12.482 7.14975 11.6835C7.02397 11.607 6.94193 11.6125 6.81615 11.6835C5.99584 12.1648 5.17006 12.6406 4.34428 13.1164C4.07631 13.2804 3.75912 13.3351 3.45834 13.275C3.03725 13.1929 2.63803 12.821 2.55053 12.3945C2.44662 11.9132 2.56693 11.4867 2.96068 11.1859C3.23959 10.9726 3.55678 10.8195 3.85756 10.639C4.09818 10.4968 4.33334 10.3601 4.59037 10.2125C4.52475 10.1742 4.481 10.1468 4.43725 10.1195C3.90131 9.80776 3.36537 9.50151 2.82943 9.18433C2.28256 8.86714 2.06928 8.17261 2.34818 7.6312C2.6435 7.05151 3.31068 6.78355 3.89037 7.05151C4.22943 7.20464 4.54662 7.41245 4.86928 7.59839C5.19193 7.78433 5.52006 7.97573 5.86459 8.17261V6.28589C5.86459 5.5312 6.60287 4.96245 7.33021 5.14839C7.89896 5.29058 8.2599 5.76089 8.2599 6.37339V9.44683C8.25443 9.52886 8.29818 9.61089 8.38022 9.6437C9.75287 10.4312 11.1201 11.2187 12.4927 12.0117L13.3185 12.4875C13.324 12.4656 13.3294 12.4492 13.3294 12.4273V6.64136C13.324 6.58667 13.2966 6.54292 13.2529 6.51558C12.9466 6.32964 12.6294 6.15464 12.3177 5.97417C11.7052 5.6187 11.0927 5.27417 10.4966 4.90776C10.0865 4.6562 9.89506 4.10933 10.0208 3.66089C10.2451 2.85151 11.0544 2.50698 11.7927 2.91714C12.088 3.0812 12.3833 3.2562 12.6787 3.42573C12.8865 3.54605 13.0943 3.66089 13.324 3.79214V1.78511C13.324 1.16167 13.674 0.696826 14.2372 0.554639L14.4013 0.516357H14.6583C14.6747 0.527295 14.6912 0.532764 14.7076 0.538232C15.3146 0.642139 15.7138 1.10698 15.7138 1.72495V3.7812C15.7849 3.74292 15.8396 3.71558 15.8888 3.68823C16.3372 3.4312 16.7802 3.1687 17.2287 2.91167C17.5349 2.73667 17.8521 2.67105 18.1966 2.78042C18.6888 2.93355 18.9841 3.27808 19.0443 3.7812C19.1044 4.28433 18.9076 4.69995 18.4537 4.96792C17.5732 5.48198 16.6927 5.99058 15.8122 6.49917C15.7412 6.53198 15.7029 6.60308 15.7083 6.67417V12.2906C15.7083 12.3234 15.7138 12.3617 15.7193 12.4109L16.1787 12.1429C17.6662 11.2843 19.1537 10.4257 20.6466 9.56714C20.7505 9.51792 20.8107 9.41401 20.7943 9.29917C20.7888 8.33667 20.7888 7.37417 20.7943 6.41167C20.7943 6.2148 20.8271 6.01792 20.8927 5.83198C21.0841 5.32886 21.6638 5.03355 22.2052 5.13198C22.7302 5.22495 23.1513 5.68433 23.1677 6.22026C23.1841 6.78355 23.1787 7.35229 23.1787 7.92105V8.10151L23.3318 8.01401C23.8677 7.70776 24.3982 7.40151 24.9286 7.0898C25.1747 6.94214 25.4701 6.89292 25.7544 6.94214C26.2685 7.03511 26.6294 7.41245 26.7279 7.94292C26.8099 8.38042 26.5857 8.87808 26.1701 9.13511C25.831 9.34292 25.481 9.53433 25.1365 9.73667L24.3872 10.1742C24.4201 10.196 24.4365 10.207 24.4474 10.2179C24.9615 10.5132 25.4755 10.8031 25.9787 11.1093C26.3451 11.3226 26.5583 11.7328 26.5201 12.1539C26.4708 13.0781 25.5083 13.5867 24.7044 13.1273C23.8404 12.6296 22.9708 12.1265 22.1068 11.6234C22.0357 11.5687 21.9372 11.5687 21.8662 11.6179C20.5701 12.3726 19.2685 13.1273 17.9669 13.8765L16.8404 14.5273C17.163 14.7132 17.4638 14.8937 17.7646 15.0687C19.1044 15.8453 20.4443 16.6164 21.7896 17.3929C21.8607 17.4476 21.9591 17.4476 22.0302 17.3984C22.9435 16.8679 23.8568 16.3429 24.7755 15.8179C25.049 15.6593 25.3826 15.6265 25.6779 15.7304C26.1865 15.8945 26.4708 16.2609 26.5201 16.7804C26.5638 17.2507 26.3615 17.6226 25.9677 17.8796C25.6943 18.0546 25.4044 18.2078 25.1201 18.3773L24.3162 18.8421C24.3544 18.8695 24.3763 18.8859 24.3982 18.8968L26.1482 19.9031C26.5529 20.1382 26.7771 20.4937 26.7826 20.9585C26.7935 21.8664 25.8091 22.446 25.0052 22.0085C24.6333 21.8062 24.2669 21.582 23.9005 21.3687C23.6654 21.232 23.4302 21.1007 23.1841 20.9585V22.4406C23.1841 22.5554 23.1787 22.6703 23.1677 22.7796C23.1076 23.4085 22.5662 23.8679 21.9318 23.8515C21.3083 23.8351 20.7833 23.2773 20.7888 22.6812C20.7943 21.6859 20.7888 20.6906 20.7888 19.6953C20.7888 19.6296 20.7615 19.5695 20.7122 19.5312C20.4443 19.3671 20.1654 19.2085 19.8919 19.05C18.574 18.2898 17.2615 17.5296 15.9435 16.7695C15.8669 16.7257 15.7958 16.6875 15.7029 16.6382C15.7029 18.5523 15.7029 20.4335 15.7083 22.3203C15.7138 22.375 15.7466 22.4296 15.7958 22.457C16.1841 22.6867 16.5724 22.9109 16.9662 23.1351C17.4912 23.4414 18.0271 23.7367 18.5412 24.0648C19.0333 24.3765 19.1865 25.0164 18.9349 25.5523C18.6943 26.0718 18.0927 26.3617 17.5458 26.1812C17.2396 26.0773 16.9607 25.8968 16.6763 25.7382C16.3537 25.5632 16.0419 25.3718 15.7029 25.1804V27.2968C15.7029 27.6906 15.5497 28.0242 15.2216 28.2484C15.063 28.3632 14.8552 28.4179 14.6583 28.5Z" fill="#5B7DDE"/>
</g>
<defs>
<clipPath id="clip0_6704_161">
<rect width="28" height="28" fill="white" transform="translate(0.488403 0.5)"/>
</clipPath>
</defs>
</svg>
