<svg xmlns="http://www.w3.org/2000/svg" version="1.1" xmlns:xlink="http://www.w3.org/1999/xlink" xmlns:svgjs="http://svgjs.dev/svgjs" width="128" height="148"><svg width="128" height="148" viewBox="0 0 128 148" fill="none" xmlns="http://www.w3.org/2000/svg">
<circle cx="64" cy="74" r="64" fill="#5B7DDE"></circle>
<path d="M34.5432 84.5482C34.8093 84.5482 35.0452 84.6506 35.2509 84.8554L37.1743 86.9337C36.1098 88.247 34.7972 89.253 33.2367 89.9518C31.6882 90.6506 29.8252 91 27.6477 91C25.7001 91 23.9459 90.6687 22.3854 90.006C20.8369 89.3434 19.5123 88.4217 18.4114 87.241C17.3106 86.0602 16.4638 84.6506 15.871 83.012C15.2903 81.3735 15 79.5843 15 77.6446C15 75.6807 15.3145 73.8855 15.9436 72.259C16.5726 70.6205 17.4558 69.2108 18.5929 68.0301C19.7421 66.8494 21.1091 65.9337 22.6939 65.2831C24.2786 64.6205 26.0327 64.2892 27.9562 64.2892C29.8676 64.2892 31.5612 64.6024 33.0371 65.2289C34.525 65.8554 35.7892 66.6747 36.8296 67.6867L35.1964 69.9458C35.0997 70.0904 34.9726 70.2169 34.8154 70.3253C34.6702 70.4337 34.4645 70.488 34.1984 70.488C34.0169 70.488 33.8294 70.4398 33.6359 70.3434C33.4423 70.2349 33.2306 70.1084 33.0008 69.9639C32.7709 69.8072 32.5048 69.6386 32.2024 69.4578C31.8999 69.2771 31.5491 69.1145 31.1499 68.9699C30.7507 68.8133 30.2849 68.6867 29.7527 68.5904C29.2325 68.4819 28.6276 68.4277 27.9381 68.4277C26.7646 68.4277 25.688 68.6386 24.7081 69.0602C23.7403 69.4699 22.9056 70.0723 22.2039 70.8675C21.5023 71.6506 20.9579 72.6145 20.5708 73.759C20.1837 74.8916 19.9901 76.1867 19.9901 77.6446C19.9901 79.1145 20.1958 80.4217 20.6071 81.5663C21.0305 82.7108 21.5991 83.6747 22.3128 84.4578C23.0266 85.241 23.8673 85.8434 24.8351 86.2651C25.8029 86.6747 26.8433 86.8795 27.9562 86.8795C28.6216 86.8795 29.2204 86.8434 29.7527 86.7711C30.297 86.6988 30.793 86.5843 31.2406 86.4277C31.7003 86.2711 32.1298 86.0723 32.529 85.8313C32.9403 85.5783 33.3455 85.2711 33.7448 84.9096C33.8657 84.8012 33.9928 84.7169 34.1258 84.6566C34.2589 84.5843 34.398 84.5482 34.5432 84.5482Z" fill="white"></path>
<path d="M62.7831 90.7108H58.3555C57.8958 90.7108 57.5087 90.5904 57.1941 90.3494C56.8917 90.1084 56.6074 89.753 56.3413 89.2831L50.7523 80.5C50.6072 80.247 50.4499 80.0422 50.2805 79.8855C50.1233 79.7169 49.9479 79.5843 49.7543 79.488C49.5728 79.3795 49.3611 79.3072 49.1192 79.2711C48.8893 79.2349 48.6232 79.2169 48.3208 79.2169H45.3993V90.7108H40.518V64.5783H45.3993V75.5301H47.8671C48.3631 75.5301 48.7926 75.4458 49.1555 75.2771C49.5184 75.1084 49.8571 74.7952 50.1717 74.3374L55.9239 65.8795C56.1659 65.494 56.4501 65.1807 56.7768 64.9398C57.1034 64.6988 57.4966 64.5783 57.9563 64.5783H62.1298L54.9985 75.0602C54.696 75.5181 54.3452 75.8976 53.946 76.1988C53.5468 76.5 53.1052 76.7349 52.6214 76.9036C53.3472 77.1084 53.9581 77.4337 54.4541 77.8795C54.9622 78.3133 55.4461 78.9157 55.9058 79.6867L62.7831 90.7108Z" fill="white"></path>
<path d="M79.5967 80.8434L76.403 72.1506C76.2458 71.7651 76.0825 71.3072 75.9131 70.7771C75.7437 70.247 75.5744 69.6747 75.405 69.0602C75.2477 69.6747 75.0844 70.253 74.9151 70.7952C74.7457 71.3253 74.5824 71.7892 74.4251 72.1867L71.2496 80.8434H79.5967ZM88.216 90.7108H84.4417C84.0183 90.7108 83.6735 90.6084 83.4074 90.4036C83.1412 90.1867 82.9416 89.9217 82.8085 89.6084L80.8488 84.2771H69.9794L68.0196 89.6084C67.9228 89.8855 67.7353 90.1386 67.4571 90.3675C67.1788 90.5964 66.828 90.7108 66.4046 90.7108H62.6121L72.919 64.5783H77.9091L88.216 90.7108Z" fill="white"></path>
<path d="M113 64.5783V90.7108H108.101V74.3374C108.101 73.7229 108.113 73.0783 108.137 72.4036C108.173 71.7289 108.246 71.012 108.355 70.253C108.113 70.9277 107.847 71.5542 107.556 72.1325C107.278 72.6988 107.006 73.1988 106.74 73.6325L96.7049 89.2108C96.5961 89.3916 96.463 89.5723 96.3057 89.753C96.1606 89.9337 95.9972 90.0964 95.8158 90.241C95.6343 90.3735 95.4347 90.488 95.217 90.5843C94.9992 90.6687 94.7754 90.7108 94.5456 90.7108H90.8801V64.5783H95.7795V80.9518C95.7795 81.5663 95.7613 82.2169 95.7251 82.9036C95.7009 83.5783 95.6343 84.2952 95.5255 85.0542C95.7674 84.3795 96.0275 83.753 96.3057 83.1747C96.5961 82.5964 96.8803 82.0904 97.1586 81.6566L107.175 66.0783C107.284 65.8976 107.411 65.7169 107.556 65.5361C107.713 65.3554 107.883 65.1988 108.064 65.0663C108.246 64.9217 108.439 64.8072 108.645 64.7229C108.863 64.6265 109.093 64.5783 109.335 64.5783H113ZM102.167 60.8012C102.614 60.8012 102.989 60.759 103.292 60.6747C103.594 60.5904 103.836 60.4458 104.018 60.241C104.199 60.0241 104.326 59.7349 104.399 59.3735C104.471 59.012 104.508 58.5542 104.508 58H107.157C107.472 58 107.701 58.1325 107.847 58.3976C108.004 58.6627 108.082 58.9518 108.082 59.2651C108.082 59.8795 107.943 60.4217 107.665 60.8916C107.387 61.3614 106.988 61.753 106.467 62.0663C105.947 62.3795 105.324 62.6205 104.598 62.7892C103.873 62.9458 103.062 63.0241 102.167 63.0241C101.272 63.0241 100.461 62.9458 99.7353 62.7892C99.0095 62.6205 98.3865 62.3795 97.8663 62.0663C97.3461 61.753 96.9469 61.3614 96.6686 60.8916C96.3904 60.4217 96.2513 59.8795 96.2513 59.2651C96.2513 58.9518 96.3239 58.6627 96.469 58.3976C96.6263 58.1325 96.8622 58 97.1767 58H99.826C99.826 58.5542 99.8623 59.012 99.9349 59.3735C100.007 59.7349 100.135 60.0241 100.316 60.241C100.497 60.4458 100.733 60.5904 101.024 60.6747C101.326 60.759 101.707 60.8012 102.167 60.8012Z" fill="white"></path>
</svg><style>@media (prefers-color-scheme: light) { :root { filter: none; } }
@media (prefers-color-scheme: dark) { :root { filter: none; } }
</style></svg>